<svg id="Layer_1" data-name="Layer 1" xmlns="http://www.w3.org/2000/svg" xmlns:xlink="http://www.w3.org/1999/xlink" viewBox="0 0 516.08 516.08"><defs><style>.cls-1{stroke:#1d1d1b;stroke-width:0.29px;fill:url(#linear-gradient);}.cls-1,.cls-3{stroke-miterlimit:10;}.cls-2{opacity:0.75;}.cls-3{fill:none;stroke:#fff;stroke-width:11px;}</style><linearGradient id="linear-gradient" x1="257.83" y1="2.33" x2="257.83" y2="518.41" gradientUnits="userSpaceOnUse"><stop offset="0" stop-color="#7b1717"/><stop offset="0.51" stop-color="#551313"/><stop offset="1" stop-color="#411414"/></linearGradient></defs><rect class="cls-1" x="-0.21" y="2.33" width="516.08" height="516.08"/><g class="cls-2"><path class="cls-3" d="M282.58,255.49q0,84.42,0,168.84c0,18.79-.11,18.9-17.3,12.85-35.68-12.55-71.31-25.3-107.07-37.64-7.43-2.56-11-5.86-10.93-14.64q.75-132.13.4-264.28c0-11.13,3.69-15.12,14.42-18C197.87,93.2,233.18,82,268.79,71.91,281.93,68.17,282.56,69,282.57,83Q282.63,169.22,282.58,255.49Zm-17.41.49-11.88-9.46c-2.49,3.61-7,7.31-6.88,10.82.14,3.34,5.14,6.49,8,9.73Z"/><path class="cls-3" d="M345.23,125.89H288.87V106.35c21.39,0,42.89-1.26,64.14.51,11.26.93,15.85,10.86,15.8,22.68-.27,53.81-.11,107.62-.11,161.43,0,30.57-.11,61.14.07,91.71.06,8.74.46,16.2-12.14,16-12-.2-11.38-7.53-11.38-15.62q.06-120.45,0-240.91Z"/></g></svg>