<svg id="Layer_1" data-name="Layer 1" xmlns="http://www.w3.org/2000/svg" xmlns:xlink="http://www.w3.org/1999/xlink" viewBox="0 0 516.08 516.08"><defs><style>.cls-1{stroke:#1d1d1b;stroke-width:0.29px;fill:url(#linear-gradient);}.cls-1,.cls-3,.cls-4{stroke-miterlimit:10;}.cls-2{opacity:0.76;}.cls-3,.cls-4{fill:none;stroke:#fff;}.cls-3{stroke-width:9px;}.cls-4{stroke-width:11px;opacity:0.81;}</style><linearGradient id="linear-gradient" x1="258.04" x2="258.04" y2="516.08" gradientUnits="userSpaceOnUse"><stop offset="0" stop-color="#7b1717"/><stop offset="0.51" stop-color="#551313"/><stop offset="1" stop-color="#411414"/></linearGradient></defs><rect class="cls-1" width="516.08" height="516.08"/><g class="cls-2"><path class="cls-3" d="M225,194.78c1.83,3.33,4.34,5.94,4.61,8.77.64,6.62-.24,13.39.35,20,.56,6.25,2.23,12.4,3.38,18.6s3.21,12.4,3.28,18.61q.79,78.95.87,157.88a22.79,22.79,0,0,1-2.73,10c-2.53,4.94-3.55,8.79,4.59,10.17-.26.88-.53,1.75-.8,2.63-2.54.89-5.06,2.53-7.61,2.57q-23.39.36-46.78,0c-2.09,0-4.15-1.83-6.23-2.81,1.23-1.28,3.18-2.39,3.53-3.87a18.85,18.85,0,0,0-.07-7.59c-.86-4.45-3.14-8.8-3.15-13.2,0-52.62.19-105.25.4-157.88,0-2.77-.6-6,.62-8.22,8.42-15,6.21-31.29,6.93-47.3.12-2.58,2.74-5.05,4.28-7.69Z"/><path class="cls-3" d="M188.76,181.78l35.94-.72c7.86-8.45-4.65-79.79-17.65-92.1-13.67,18.33-23.76,87.33-17,93.27"/></g><g class="cls-2"><path class="cls-3" d="M239.31,226.37c6.84-1.53,2.3-27.19,2.73-36.86.12-2.58,2.74-5,4.28-7.68l34.53-.72c1.83,3.33,4.34,5.95,4.61,8.78.64,6.62-.24,13.38.35,20,.56,6.26,2.23,12.41,3.38,18.61s3.21,12.39,3.27,18.61q.81,78.93.88,157.88a22.87,22.87,0,0,1-2.73,10c-2.53,4.93-3.55,8.79,4.59,10.17-.27.87-.53,1.75-.8,2.62-2.54.9-5.06,2.54-7.61,2.58-12.75.19-30.26.22-43,.09"/><path class="cls-3" d="M244.65,168.11l35.94-.71c7.86-8.45-4.65-79.79-17.65-92.11-13.67,18.34-23.76,87.34-17,93.28"/></g><g class="cls-2"><path class="cls-3" d="M175.32,230c-6.83-1.52-2.29-27.19-2.72-36.85-.12-2.58-2.74-5-4.28-7.68l-34.53-.72c-1.83,3.33-4.34,6-4.61,8.78-.64,6.62.24,13.38-.35,20-.56,6.26-2.23,12.41-3.38,18.61s-3.21,12.39-3.27,18.61q-.81,78.93-.88,157.88a22.87,22.87,0,0,0,2.73,10c2.53,4.93,3.55,8.79-4.59,10.17.26.87.53,1.75.8,2.62,2.54.9,5.06,2.54,7.61,2.58,12.74.19,30.26.21,43,.08"/><path class="cls-3" d="M170,171.7,134.05,171c-7.86-8.46,4.65-79.79,17.65-92.11,13.67,18.34,23.76,87.34,17,93.28"/></g><path class="cls-4" d="M294.65,162.33c27.65-8.29,39.12-32.81,39.12-32.81s32.32,44.47,98.28,59.76c0,0-8,54.31-27.52,102.18-14.51,35.6-68.62,81-68.62,81A266.94,266.94,0,0,1,307.34,353"/></svg>