<svg id="Layer_1" data-name="Layer 1" xmlns="http://www.w3.org/2000/svg" xmlns:xlink="http://www.w3.org/1999/xlink" viewBox="0 0 516.08 516.08"><defs><style>.cls-1,.cls-8{fill:none;}.cls-2{stroke:#1d1d1b;stroke-width:0.29px;fill:url(#linear-gradient);}.cls-2,.cls-8{stroke-miterlimit:10;}.cls-3{opacity:0.89;}.cls-4{clip-path:url(#clip-path);}.cls-5{fill:#5c1a11;}.cls-6{fill:#fff;}.cls-7{fill:#471c15;}.cls-8{stroke:#fff;stroke-width:3.85px;}.cls-9{fill:#801710;}</style><linearGradient id="linear-gradient" x1="258.04" x2="258.04" y2="516.08" gradientUnits="userSpaceOnUse"><stop offset="0" stop-color="#7b1717"/><stop offset="0.51" stop-color="#551313"/><stop offset="1" stop-color="#411414"/></linearGradient><clipPath id="clip-path"><rect class="cls-1" x="-13.87" y="-89.59" width="1290.55" height="736.04"/></clipPath></defs><rect class="cls-2" width="516.08" height="516.08"/><g class="cls-3"><g class="cls-4"><path class="cls-5" d="M151,133.64c-6.94-14.93-8.17-26.94-3.65-35.69,2.57-5,6.36-7.83,10.37-10.86,4.36-3.29,8.87-6.69,12.53-13.29a41.82,41.82,0,0,0,5-19.55l.12-5.36,2.42,4.77a41.94,41.94,0,0,1,2.62,6.49,42.6,42.6,0,0,1,1.79,11,47.62,47.62,0,0,1-1,10.94c-1.67,7.25-6.57,11.36-11.76,15.71-3.79,3.18-7.71,6.46-10.73,11.25-4,6.31-5.71,14.36-5.14,23.94L154,140Z"/><path class="cls-6" d="M176.63,54.29a39.26,39.26,0,0,1,2.52,6.26,41,41,0,0,1,1.74,10.64,47.12,47.12,0,0,1-1,10.58c-2.75,11.92-15,15-22.31,26.54-2.88,4.56-6.1,12.21-5.35,24.75-8.5-18.26-6.76-28.51-3.68-34.47,5.15-10,15.68-11.14,22.88-24.13a43.46,43.46,0,0,0,5.17-20.17m-2.46-10.81-.23,10.74a40.38,40.38,0,0,1-4.83,18.91C165.6,79.48,161.2,82.79,157,86c-4,3-8,6.07-10.76,11.32-4.73,9.15-3.51,21.56,3.63,36.9l5.95,12.8-.84-14.12c-.55-9.28,1.11-17.06,4.93-23.12,2.91-4.61,6.75-7.83,10.46-10.94,5.13-4.31,10.43-8.76,12.21-16.45a49.4,49.4,0,0,0,1-11.3,44.1,44.1,0,0,0-1.86-11.35A43.24,43.24,0,0,0,179,53Z"/><path class="cls-5" d="M350.56,262.61a18.11,18.11,0,0,0,.87-9,27.48,27.48,0,0,0-3.17-9.72l-.13-.25a34.39,34.39,0,0,1-3.94-9.43c-1.3-6.41.37-10.7,5.75-14.83a28.48,28.48,0,0,1,8-4.21l4.84-1.72-3.38,3.9a19.18,19.18,0,0,0-4.52,7.7,14.59,14.59,0,0,0,0,8.12l.27.85a68.57,68.57,0,0,1,3.09,12.28,24.53,24.53,0,0,1-.54,10.36,17.31,17.31,0,0,1-4.95,7.49l-4.46,4.17Z"/><path class="cls-6" d="M358.35,216.43a20.19,20.19,0,0,0-4.81,8.27,16,16,0,0,0,0,8.87,72.71,72.71,0,0,1,3.31,12.88,22.92,22.92,0,0,1-.49,9.78,15.91,15.91,0,0,1-4.59,6.89,19.53,19.53,0,0,0,1-9.7,28.84,28.84,0,0,0-3.32-10.21c-1.61-3-3.25-6-3.93-9.29-1.23-6.09.41-9.77,5.25-13.48a27.48,27.48,0,0,1,7.59-4m8.78-6-9.67,3.43a29.92,29.92,0,0,0-8.33,4.41c-5.78,4.44-7.66,9.28-6.26,16.19a35.14,35.14,0,0,0,4.08,9.81l.14.25a26.1,26.1,0,0,1,3,9.24,16.68,16.68,0,0,1-.77,8.33l-4.61,11.39,8.92-8.35a18.56,18.56,0,0,0,5.32-8.08,25.93,25.93,0,0,0,.6-10.94,69.85,69.85,0,0,0-3.15-12.53l-.27-.84a13.27,13.27,0,0,1,0-7.38,18.06,18.06,0,0,1,4.23-7.13Z"/><path class="cls-5" d="M297,373.37a35.52,35.52,0,0,0,9.36-10.63c2.45-4.3,6.56-11.48,4.1-19.74-2.8-9.38-12.3-13.85-12.7-14l-.45-.2a7.07,7.07,0,0,0-3-.55c-5.94,0-15.79,4.36-26.22,9-11.52,5.1-24.57,10.88-35.06,11.9-1.25.12-2.54.18-3.83.18h0c-14.36,0-30.92-7.79-44.3-20.83-13.77-13.42-22.21-30.18-23.18-46a55.88,55.88,0,0,1,4.54-25.19l2.2-5.22.38,5.66c.26,3.86,1.58,11.15,7.48,16.65a27.26,27.26,0,0,0,17.9,7,17.58,17.58,0,0,0,11.69-4c5.87-5,8.17-14.51,5-20.67-2.19-4.28-6.13-5.37-17.83-8.61-4.58-1.27-10.27-2.85-17.41-5.06-23.52-7.3-29.48-11.19-33.56-14.54a59,59,0,0,1-15.37-19.78c-15.07-30.16,2.43-65.57,6.09-72.36l3.5-6.5-1,7.34A68.56,68.56,0,0,0,137,160.62c4.08,15.68,13.85,24.71,29,26.82l.2,0a15.34,15.34,0,0,0,2.05.14,14.59,14.59,0,0,0,11.18-5.19,13.82,13.82,0,0,0,3.17-11.17c-5.57-36.22,7.07-59.6,18.64-72.83C214,83.88,228,78.09,228.61,77.85l11.88-4.8-10.64,7.2c-.38.26-9.35,6.42-9.19,14.1.1,4.5,3.38,8.77,9.74,12.69a9.42,9.42,0,0,0,5.08,1.48c7.07,0,15.62-7.81,25.53-16.87,16.12-14.72,38.19-34.89,69.06-34.89a80.5,80.5,0,0,1,21.87,3.17L359.27,62l-7.59.59c-25.89,2-43.14,12.62-48.59,29.84-5.16,16.31,1.3,36.27,15.72,48.54,2.53,2.15,6.75,3.43,11.28,3.43,6.07,0,11.55-2.16,14.65-5.79,3.82-4.48,3.54-10.69,3-14l-.76-4.95,3.13,3.88a46.68,46.68,0,0,1,7.69,13.56c7.16,20-2.29,38.72-12.29,58.54C336,214.51,326.18,234,329.93,256.14l.12.72c3.39,20.46,10.59,22.66,13.3,23.49a21.87,21.87,0,0,0,6.33,1,12.74,12.74,0,0,0,9.8-4.24c8.74-9.41,7.54-31.15,7.53-31.37l-.66-11,3.28,10.52A103.56,103.56,0,0,1,372,297.86a106.88,106.88,0,0,1-25.13,48.36c-6.77,7.48-22.64,25-47.27,29.32-.68.12-1.23.21-1.61.26l-5.23.79Z"/><path class="cls-6" d="M330.07,58.13a78.71,78.71,0,0,1,21.5,3.11C288.46,66.18,291.09,119.17,318,142c2.89,2.46,7.42,3.76,12.14,3.76,5.87,0,12-2,15.66-6.27,4.51-5.27,3.75-12.51,3.35-15.09a45.29,45.29,0,0,1,7.46,13.17c13.71,38.25-35.73,72.87-28,118.78.92,5.41,3.2,21.87,14.36,25.28a22.86,22.86,0,0,0,6.72,1.1c20.91,0,18.67-37.05,18.67-37.05a102.24,102.24,0,0,1,2.34,51.87,105.68,105.68,0,0,1-24.8,47.73c-6.78,7.48-22.33,24.63-46.51,28.9l-1.58.25a37,37,0,0,0,9.72-11c2.48-4.35,6.84-12,4.21-20.81-2.92-9.82-12.52-14.48-13.42-14.89l-.51-.23a8.49,8.49,0,0,0-3.49-.65c-13,0-41.69,19-61.41,20.88-1.22.12-2.45.18-3.7.18-29.48,0-64.13-32.7-66.14-65.55a54.79,54.79,0,0,1,4.44-24.57c.18,2.72,1.11,11.21,7.91,17.56a28.67,28.67,0,0,0,18.81,7.38,19,19,0,0,0,12.56-4.34c6.17-5.3,8.91-15.36,5.34-22.34-3.41-6.67-10.48-6.42-36-14.35-23.48-7.28-29.29-11.15-33.12-14.29a57.18,57.18,0,0,1-15-19.34c-15.2-30.43,3.65-66.6,6.07-71.09,0,0-6.32,46.52,31.78,51.82l.17,0A15.84,15.84,0,0,0,183.92,171c-10.61-69,44.4-91.6,45.19-91.92-.54.37-22.15,15.1.6,29.1a10.81,10.81,0,0,0,5.77,1.68c19.63,0,45.11-51.76,94.59-51.76m0-2.73c-14,0-27.28,3.93-40.66,12C278,74.3,268.49,83,260.11,90.64c-9.7,8.86-18.08,16.52-24.63,16.52a8.21,8.21,0,0,1-4.38-1.28c-5.95-3.67-9-7.56-9.1-11.56-.14-6.95,8.51-12.88,8.6-12.94L252,66.93l-23.86,9.65A81.8,81.8,0,0,0,200.23,97.5a80.4,80.4,0,0,0-16.4,29.28c-4.19,13.47-5.05,28.5-2.57,44.67a12.48,12.48,0,0,1-2.86,10.08,13.36,13.36,0,0,1-12,4.58l-.14,0h-.05c-14.57-2-24-10.69-27.9-25.74a67.56,67.56,0,0,1-1.58-23l2-14.64-7,13c-3.72,6.89-21.48,42.85-6.11,73.62a60.14,60.14,0,0,0,15.72,20.23c4.19,3.44,10.27,7.41,34,14.78,7.15,2.22,12.86,3.8,17.44,5.07,11.95,3.31,15.15,4.32,17,7.93,2.88,5.63.73,14.33-4.7,19A16.32,16.32,0,0,1,194.22,280a25.88,25.88,0,0,1-17-6.66c-5.56-5.19-6.8-12.09-7-15.74l-.76-11.33L165,256.71a57.29,57.29,0,0,0-4.64,25.81c1,16.15,9.58,33.24,23.58,46.89a83.49,83.49,0,0,0,21.6,15.33c8.1,3.9,16.06,5.89,23.64,5.89,1.34,0,2.67-.07,4-.19,10.7-1,23.86-6.87,35.46-12,10.3-4.55,20-8.86,25.69-8.86a5.87,5.87,0,0,1,2.39.41l.11,0a3.31,3.31,0,0,1,.38.17c.39.18,9.35,4.4,12,13.19,2.29,7.7-1.63,14.56-4,18.67a34.26,34.26,0,0,1-9,10.22l-8.46,6.45,10.48-1.58,1.64-.27c25.08-4.43,41.16-22.16,48-29.73a108.16,108.16,0,0,0,25.45-49,104.86,104.86,0,0,0-2.41-53.28l-6.58-21.09,1.34,22.08c0,.21,1.16,21.38-7.17,30.36a11.46,11.46,0,0,1-8.82,3.81,20.26,20.26,0,0,1-5.94-1c-9.11-2.78-11.48-17-12.37-22.41l-.12-.72c-3.67-21.69,6.07-41,15.48-59.63,10.14-20.09,19.72-39.07,12.36-59.62a48,48,0,0,0-7.91-14l-6.26-7.76,1.53,9.91c.47,3.07.74,8.83-2.73,12.89-2.85,3.33-7.94,5.32-13.63,5.32-4.23,0-8.12-1.16-10.41-3.11A49.71,49.71,0,0,1,305,118.13c-2.91-8.71-3.14-17.45-.66-25.27,5.27-16.66,22.11-26.92,47.41-28.9L367,62.77,352.3,58.62a81.58,81.58,0,0,0-22.23-3.22"/><polygon class="cls-7" points="254.8 383.97 244.98 157.66 233.34 131.19 225.57 162.89 244.16 384.65 254.8 383.97"/><polygon class="cls-8" points="254.8 383.97 244.98 157.66 233.34 131.19 225.57 162.89 244.16 384.65 254.8 383.97"/><polygon class="cls-7" points="268.41 383.97 278.22 157.66 289.86 131.19 297.63 162.89 279.04 384.65 268.41 383.97"/><polygon class="cls-8" points="268.41 383.97 278.22 157.66 289.86 131.19 297.63 162.89 279.04 384.65 268.41 383.97"/><polygon class="cls-5" points="260.39 398.56 288.07 403.51 258.47 409.6 260.39 398.56"/><path class="cls-6" d="M261.48,400.14l19.38,3.46-20.72,4.27ZM259.3,397l-.46,2.68-1.35,7.73-.68,3.94,3.86-.79,20.72-4.27,13.9-2.86-14-2.49L262,397.45Z"/><polygon class="cls-5" points="256.25 422.41 280.97 417.32 278.69 430.44 253.97 435.51 256.25 422.41"/><path class="cls-6" d="M279.3,419.06l-1.78,10.23-21.89,4.49,1.78-10.22Zm3.34-3.47-3.87.79-21.89,4.51-1.8.37-.32,1.83L253,433.31l-.68,3.94,3.87-.8L278.06,432l1.79-.37.32-1.83L282,419.53Z"/><polygon class="cls-5" points="229.85 393.65 221.43 383.74 234.23 383.74 234.23 380.66 332.34 398.2 313.87 408.67 229.85 393.65"/><path class="cls-6" d="M235.58,382.29l92.81,16.59-14.76,8.36-83.07-14.85-6.2-7.28h11.22ZM232.89,379v3.34h-14.4l3.83,4.51,6.2,7.28.63.74.94.17,83.07,14.85.95.17.83-.48,14.76-8.36,6.59-3.73-7.43-1.33L236,379.6Z"/><polygon class="cls-5" points="247.49 448.42 244.05 434.03 286.9 441.69 278.82 454.02 247.49 448.42"/><path class="cls-6" d="M245.84,435.74l38.81,6.93-6.46,9.85-29.6-5.29Zm-3.58-3.41,1,4.05L246,447.87l.41,1.73,1.73.31,29.6,5.3,1.73.31,1-1.49,6.46-9.85,2.27-3.47-4.05-.72-38.8-6.94Z"/><polygon class="cls-5" points="264.52 386.63 296.96 165.4 318.2 134.68 327.81 170.91 282.54 389.85 264.52 386.63"/><path class="cls-6" d="M317.65,137.85l8.78,33.1L281.49,388.28l-15.44-2.76,32.19-219.61Zm1.11-6.35-3.31,4.78L296,164.35l-.37.53-.09.63L263.39,385.12l-.39,2.63,2.58.46L281,391l2.57.46.53-2.59,44.94-217.33.13-.63-.17-.63-8.77-33.11Z"/><polygon class="cls-5" points="258.5 409.44 283.23 404.36 280.94 417.48 256.22 422.56 258.5 409.44"/><path class="cls-6" d="M281.56,406.09l-1.78,10.23-21.9,4.51,1.78-10.23Zm3.33-3.47-3.87.8-21.89,4.5-1.8.37-.31,1.83-1.78,10.24-.69,3.94,3.87-.8,21.89-4.5,1.8-.37.32-1.83,1.78-10.24Z"/><polygon class="cls-5" points="251.47 435.91 278.72 430.29 276.95 440.47 251.47 435.91"/><path class="cls-6" d="M277.05,432l-1.19,6.87-17.18-3.07Zm3.33-3.47-3.87.8-18.37,3.79L244.27,436l13.94,2.49,17.18,3.07L278,442l.46-2.68,1.2-6.87Z"/><polygon class="cls-9" points="317.65 137.85 275.85 379.86 283.23 379.86 326.43 170.95 317.65 137.85"/><polygon class="cls-5" points="239.68 402.69 267.36 397.75 241.6 413.74 239.68 402.69"/><path class="cls-6" d="M260.61,400.34l-18,11.19-1.34-7.73Zm13.5-5.19-14,2.5-19.37,3.47-2.65.47.47,2.68,1.34,7.73.69,3.94,3.36-2.09,18-11.19Z"/><polygon class="cls-5" points="243.83 426.55 265.35 413.19 267.63 426.31 246.1 439.65 243.83 426.55"/><path class="cls-6" d="M264.36,415.4l1.78,10.23-19,11.81-1.78-10.22Zm2-4.42L263,413.07l-19,11.83-1.57,1,.32,1.83,1.78,10.22.68,3.94,3.37-2.09L267.54,428l1.57-1-.32-1.83L267,414.92Z"/><polygon class="cls-5" points="190.87 398.2 288.94 380.67 288.94 388.25 297.94 388.25 293.34 393.65 209.32 408.68 190.87 398.2"/><path class="cls-6" d="M287.6,382.29v7.32H295l-2.36,2.78-83.08,14.86-14.75-8.37Zm2.68-3.24-3.15.56L194.35,396.2l-7.43,1.32,6.58,3.74,14.75,8.37.83.47.95-.17,83.07-14.85.95-.17.62-.73L297,391.4l3.84-4.51h-10.6v-7.84Z"/><polygon class="cls-5" points="236.29 441.69 279.14 434.03 275.7 448.42 244.37 454.02 236.29 441.69"/><path class="cls-6" d="M277.35,435.74l-2.75,11.49L245,452.52l-6.45-9.85Zm3.58-3.41-4.05.72L238.08,440l-4.05.72,2.28,3.47,6.46,9.85,1,1.49,1.73-.31,29.6-5.29,1.73-.31.42-1.74L280,436.38Z"/><polygon class="cls-5" points="195.38 170.91 204.99 134.68 226.24 165.4 257.55 386.83 239.54 390.06 195.38 170.91"/><path class="cls-6" d="M205.54,137.85,225,165.92,256,385.72l-15.44,2.76L196.77,171Zm-1.1-6.34-1.5,5.63-8.77,33.11-.17.62.13.63L238,389l.52,2.6,2.58-.46,15.44-2.76,2.57-.46-.37-2.61L227.62,165.53l-.1-.65-.37-.53-19.41-28.07Z"/><polygon class="cls-5" points="241.57 413.58 263.09 400.23 265.37 413.34 243.85 426.7 241.57 413.58"/><path class="cls-6" d="M262.11,402.43l1.78,10.24-19.06,11.82-1.78-10.23Zm2-4.41-3.37,2.09-19,11.82-1.56,1,.32,1.83L242.19,425l.68,3.94,3.37-2.09L265.29,415l1.56-1-.31-1.83L264.76,402Z"/><polygon class="cls-5" points="267.6 426.15 269.37 436.33 243.9 440.89 267.6 426.15"/><path class="cls-6" d="M266.62,428.36l1.19,6.87-17.18,3.07Zm2-4.42-3.37,2.1-16,9.94-12.07,7.5L251.1,441l17.18-3.07,2.65-.47-.47-2.68-1.19-6.87Z"/><polygon class="cls-9" points="205.54 137.85 247.21 379.86 251.34 379.86 250.22 344.6 224.95 165.92 205.54 137.85"/><polygon class="cls-5" points="247.47 431.76 273.34 421.42 273.34 431.76 247.47 431.76"/><path class="cls-6" d="M272,423.42v7H254.55Zm2.69-4L271,420.89l-17.45,7-13.16,5.26h34.28v-13.7Z"/><polygon class="cls-5" points="249.86 393.4 277.97 393.4 249.86 404.61 249.86 393.4"/><path class="cls-6" d="M270.88,394.77l-19.68,7.84v-7.84ZM285.06,392H248.51v14.58l3.68-1.47,19.67-7.85Z"/><polygon class="cls-5" points="249.86 417.62 273.34 408.26 273.34 421.58 249.86 430.93 249.86 417.62"/><path class="cls-6" d="M272,410.26v10.39l-20.79,8.28V418.55Zm2.69-4L271,407.72,250.22,416l-1.71.68v16.24l3.67-1.46L273,423.19l1.71-.68V406.26Z"/><polygon class="cls-5" points="218.94 393.95 202.56 380.39 320.65 380.39 304.25 393.95 218.94 393.95"/><path class="cls-6" d="M316.88,381.75l-13.11,10.83H219.42l-13.09-10.83Zm7.55-2.73H198.78l5.85,4.84,13.09,10.84.74.61h86.27l.74-.61,13.11-10.84Z"/><polygon class="cls-5" points="245.69 444.78 239.84 431.21 283.35 431.21 277.5 444.78 245.69 444.78"/><path class="cls-6" d="M281.3,432.58l-4.68,10.83H246.57l-4.68-10.83Zm4.11-2.73H237.78l1.65,3.82,4.68,10.83.7,1.64h33.57l.71-1.64,4.67-10.83Z"/><polygon class="cls-5" points="251.88 380.93 245.93 157.34 261.6 123.35 277.26 157.35 270.17 380.93 251.88 380.93"/><path class="cls-6" d="M261.6,127.81l14.31,30.75-7,219.73H253.19l-5.91-219.73Zm0-6.37-2.44,5.23-14.31,30.75-.27.58,0,.64,5.91,219.72.07,2.62h20.9l.08-2.61,7-219.72,0-.64-.28-.59L264,126.67Z"/><polygon class="cls-5" points="249.86 404.46 273.34 395.09 273.34 408.41 249.86 417.78 249.86 404.46"/><path class="cls-6" d="M272,397.09v10.4l-20.79,8.29V405.39Zm2.69-4L271,394.56l-20.79,8.29-1.71.68v16.25l3.68-1.47L273,410l1.7-.68V393.09Z"/></g></g></svg>