<svg id="Layer_1" data-name="Layer 1" xmlns="http://www.w3.org/2000/svg" xmlns:xlink="http://www.w3.org/1999/xlink" viewBox="0 0 516.08 516.08"><defs><style>.cls-1{stroke:#1d1d1b;stroke-width:0.29px;fill:url(#linear-gradient);}.cls-1,.cls-3,.cls-4{stroke-miterlimit:10;}.cls-2{opacity:0.76;}.cls-3,.cls-4{fill:none;stroke:#fff;}.cls-3{stroke-width:9px;}.cls-4{stroke-width:8px;}</style><linearGradient id="linear-gradient" x1="257.83" y1="2.33" x2="257.83" y2="518.41" gradientUnits="userSpaceOnUse"><stop offset="0" stop-color="#7b1717"/><stop offset="0.51" stop-color="#551313"/><stop offset="1" stop-color="#411414"/></linearGradient></defs><rect class="cls-1" x="-0.21" y="2.33" width="516.08" height="516.08"/><g class="cls-2"><path class="cls-3" d="M161.65,449q0-58.84,0-117.7c0-30.42,21.42-57,51.09-64.17,37.46-9,75.67,17.21,80.59,55.62a84.2,84.2,0,0,1,.64,10.53Q294,391.17,294,449Z"/><path class="cls-3" d="M185.51,212a42.3,42.3,0,0,1,84.6.2c-.05,23.12-19.34,42.34-42.42,42.24A42.56,42.56,0,0,1,185.51,212Z"/></g><g class="cls-2"><path class="cls-4" d="M285.65,265.78h-1.54m-.06-64a63.34,63.34,0,0,0,14.86-12.47,151.77,151.77,0,0,0,20.28-28.57q6.07-11.19,6.08-26.76,0-14.3-7.47-21.34a24.69,24.69,0,0,0-17.49-7q-30.93,0-31.14,52.47l-54.6-7.68q.84-43.3,23.89-70.07t65.48-26.77q44.79,0,65.26,24.53t20.48,57.16q0,25.39-9.81,42.56t-33.06,37.86Q330.39,230.38,326.87,238t-3.52,27.83H274.16l-.12-20m10-44,7.55,85.34,14,62.07h0m-10.74-62.07h31.42v62.07H305.65"/></g></svg>