<svg id="Layer_1" data-name="Layer 1" xmlns="http://www.w3.org/2000/svg" viewBox="0 0 243.57 243.57"><defs><style>.cls-1{fill:#fff;}.cls-2{fill:#751713;}</style></defs><circle class="cls-1" cx="121.79" cy="121.79" r="121.79"/><path class="cls-2" d="M53.07,77.82c2.07-8.75,8.6-14.41,14.4-20.51A15.63,15.63,0,0,1,73.2,54a14.8,14.8,0,0,1,11.86.55,48.17,48.17,0,0,1,22.88,22.13,16.46,16.46,0,0,1,.32,15,40.76,40.76,0,0,1-4,7.24,9.73,9.73,0,0,0,.42,11.68A143.09,143.09,0,0,0,133,138.85c3.91,3,7.78,3,11.87.44a54.33,54.33,0,0,1,8-4.23c5.61-2.33,11-1.32,16.12,1.7a50.27,50.27,0,0,1,18.78,19c4.58,8.17,3.49,16.28-3.43,22.56-3.74,3.38-7.78,6.44-11.74,9.57a11.68,11.68,0,0,1-6,2.37,3.35,3.35,0,0,0-.73.26h-7a1.66,1.66,0,0,0-.47-.22,45.8,45.8,0,0,1-13.22-3.69A123.14,123.14,0,0,1,110,164.05c-7.87-7.16-15.38-14.72-22.9-22.24a145.56,145.56,0,0,1-24.86-32.48,80.39,80.39,0,0,1-7.71-17.9c-.61-2.27-1-4.6-1.49-6.9Z"/></svg>