<svg id="Layer_1" data-name="Layer 1" xmlns="http://www.w3.org/2000/svg" xmlns:xlink="http://www.w3.org/1999/xlink" viewBox="0 0 516.08 516.08"><defs><style>.cls-1{stroke:#1d1d1b;stroke-miterlimit:10;stroke-width:0.29px;fill:url(#linear-gradient);}.cls-2{opacity:0.75;}.cls-3{fill:#fff;}.cls-4{fill:none;stroke:#fff;stroke-linecap:round;stroke-linejoin:round;stroke-width:11px;opacity:0.72;}</style><linearGradient id="linear-gradient" x1="258.04" x2="258.04" y2="516.08" gradientUnits="userSpaceOnUse"><stop offset="0" stop-color="#7b1717"/><stop offset="0.51" stop-color="#551313"/><stop offset="1" stop-color="#411414"/></linearGradient></defs><rect class="cls-1" width="516.08" height="516.08"/><g class="cls-2"><path class="cls-3" d="M352.34,199c-.2,5.4,0,10.87-.72,16.2A44,44,0,0,1,341.23,238a5.49,5.49,0,0,0-1.3,5.83c2.73,9.14,4.85,18.47,7.79,27.53,5.16,15.9-5.93,29.5-22.52,28.86-36.11-1.41-72.22-2.64-108.33-3.94-1.66-.06-3.32-.07-5.31-.11l1,3.7q11.21,40.35,22.4,80.7c4.05,14.6-2.15,25.52-16.78,29.58-4.21,1.17-8.42,2.35-12.64,3.51-13.24,3.62-24.56-2.79-28.26-16.08Q165.63,355.61,154,313.67c-.31-1.12-.63-2.24-1-3.64-5.52,1.53-10.78,2.91-16,4.45-15.83,4.67-30.38,2.36-43.66-7.61a4.73,4.73,0,0,0-3.5-.51c-12.84,3.08-22-2.77-26.53-10.36a25.86,25.86,0,0,1-2.5-6q-4.38-15.33-8.55-30.72c-3.57-13,3.08-25.11,16-28.94a5.09,5.09,0,0,0,3.7-3.27c5.79-14,16-23.22,30.55-27.33,22.18-6.26,44.42-12.34,66.61-18.57a19.43,19.43,0,0,0,5.35-2.42q49.43-32.14,98.78-64.37c9.17-6,18.54-6.14,26.13-.59a20.88,20.88,0,0,1,7.79,11.65c2.83,10.14,5.59,20.31,8.52,30.42a4.69,4.69,0,0,0,2.4,2.86c13.93,4.91,24,14,30.15,27.42a3.65,3.65,0,0,0,.78.85Zm-167.47.18c1-.58,1.89-1,2.7-1.54Q211.81,181.86,236,166c5.47-3.56,10.89-7.23,16.54-10.49a5.76,5.76,0,0,1,8.69,4.42c.37,3.23-1.53,5.11-4,6.71q-33.09,21.56-66.19,43.09c-2.32,1.49-2.76,2.82-2,5.47q9.27,32.68,18.19,65.47c.65,2.38,1.57,3.25,4.14,3.33,24,.75,48.08,1.67,72.11,2.52,14.44.52,28.88,1.19,43.32,1.37,8.05.11,11.56-4.93,9.43-12.64q-20.16-72.8-40.41-145.58c-2-7.24-6.7-9.42-13.62-6.47a22.71,22.71,0,0,0-3.34,1.92q-26,16.94-52,33.88-22.49,14.69-45,29.44Zm-14.38-5.78a12.48,12.48,0,0,0-1.35.18c-21.25,5.9-42.59,11.52-63.73,17.79-18,5.34-27.78,22.05-23.8,40.34,2.1,9.69,5.14,19.18,7.83,28.74a27.58,27.58,0,0,0,2,5.26c8,15.4,23.92,22.13,41.31,17.36,20.12-5.53,40.21-11.15,60.31-16.73.93-.26,1.84-.61,2.9-1ZM165,306.82a12.23,12.23,0,0,0,.18,1.41q12,43.36,24.1,86.73c1.76,6.29,6.25,8.7,12.61,7.12,4.53-1.13,9-2.46,13.5-3.73,7.73-2.17,10.12-6.35,8-14.06q-11.61-41.94-23.27-83.87c-.28-1-.66-2-1-3.06ZM320.69,173.28l14.46,52.12C346.16,208.28,338.83,181.91,320.69,173.28ZM82.13,294.74A222.23,222.23,0,0,1,68,244a9.83,9.83,0,0,0-4.37,11.21q4.2,16.13,8.91,32.11A9.82,9.82,0,0,0,82.13,294.74Z"/></g><line class="cls-4" x1="346.5" y1="140.91" x2="423.64" y2="91.27"/><line class="cls-4" x1="373.26" y1="183.33" x2="453.68" y2="156.23"/><line class="cls-4" x1="373.6" y1="234.92" x2="464.77" y2="245.02"/></svg>